# xmcd
#
# Track frame offsets: 
#        150
#        13354
#        26031
#        41337
#        69377
#        82478
#        95118
#        107887
#        123881
#        137189
#        151762
#        169644
#        182403
#        196165
#        212044
#        223900
#        243289
#        257916
#        270110
#        283502
#        295844
#        308963
#        325250
#        338749
#
# Disc length: 4689 seconds
#
# Revision: 0
# Processed by: cddbd v1.5.2PL0 Copyright (c) Steve Scherf et al.
# Submitted via: ExactAudioCopyFreeDBPlugin 1.0
#
DISCID=64124f18
DTITLE=B.B. King - Three O'Clock Blues CD2 (Compilation Blues Characte
DTITLE=rs)
DYEAR=1900
DGENRE=Blues
TTITLE0=Sweet thing
TTITLE1=I'm working on the building
TTITLE2=Precious Lord
TTITLE3=Sweet sixteen
TTITLE4=Someday baby
TTITLE5=Please set the date
TTITLE6=Driving wheel
TTITLE7=It's my own fault
TTITLE8=Sunny road
TTITLE9=Mr. Pawnbroker
TTITLE10=Hold that train
TTITLE11=You're on the top
TTITLE12=Partin' time
TTITLE13=Long nights
TTITLE14=Get out of here
TTITLE15=You're breaking my heart
TTITLE16=Slow walk
TTITLE17=Shoutin' the blues
TTITLE18=Night long
TTITLE19=Don't touch
TTITLE20=Blues for me
TTITLE21=Just like a woman
TTITLE22=Rock me baby
TTITLE23=Going down slow
EXTD=
EXTT0=
EXTT1=
EXTT2=
EXTT3=
EXTT4=
EXTT5=
EXTT6=
EXTT7=
EXTT8=
EXTT9=
EXTT10=
EXTT11=
EXTT12=
EXTT13=
EXTT14=
EXTT15=
EXTT16=
EXTT17=
EXTT18=
EXTT19=
EXTT20=
EXTT21=
EXTT22=
EXTT23=
PLAYORDER=
